# xmcd
#
# Track frame offsets:
#	150
#	18963
#	38667
#	52555
#	71862
#	105557
#	133586
#	155635
#	187828
#
# Disc length: 3081 seconds
#
# Revision: 0
# Processed by: cddbd v1.5.2PL0 Copyright (c) Steve Scherf et al.
# Submitted via: EasyCDDAExtractor 10.0.3.1
#
DISCID=690c0709
DTITLE=The Blue Aeroplanes - Skyscrapers
DYEAR=2000
DGENRE=AlternRock
TTITLE0=Broken and Mended
TTITLE1=Lover and Confidante
TTITLE2=Outdoor Miner
TTITLE3=Tree Full of Starlings
TTITLE4=Police
TTITLE5=Weightless
TTITLE6=Jack Leaves and Back Spring
TTITLE7=Bury your love like treasure
TTITLE8=Breaking in my heart
EXTD=
EXTT0=
EXTT1=
EXTT2=
EXTT3=
EXTT4=
EXTT5=
EXTT6=
EXTT7=
EXTT8=
PLAYORDER=
